<?xml version="1.0" encoding="UTF-8" standalone="no"?>
<!-- Created with Inkscape (http://www.inkscape.org/) -->

<svg
   width="59.506363mm"
   height="59.496815mm"
   viewBox="0 0 59.506363 59.496815"
   version="1.1"
   id="svg1"
   xml:space="preserve"
   xmlns:inkscape="http://www.inkscape.org/namespaces/inkscape"
   xmlns:sodipodi="http://sodipodi.sourceforge.net/DTD/sodipodi-0.dtd"
   xmlns="http://www.w3.org/2000/svg"
   xmlns:svg="http://www.w3.org/2000/svg"><sodipodi:namedview
     id="namedview1"
     pagecolor="#ffffff"
     bordercolor="#000000"
     borderopacity="0.25"
     inkscape:showpageshadow="2"
     inkscape:pageopacity="0.0"
     inkscape:pagecheckerboard="0"
     inkscape:deskcolor="#d1d1d1"
     inkscape:document-units="mm"><inkscape:page
       x="0"
       y="0"
       width="59.506363"
       height="59.496815"
       id="page3"
       margin="0"
       bleed="0" /></sodipodi:namedview><defs
     id="defs1" /><g
     id="g1"
     inkscape:groupmode="layer"
     inkscape:label="1"
     transform="matrix(0.26458333,0,0,0.26458334,-1.7237106e-4,1.3254777e-4)"><path
       id="path1"
       d="m 55.93,168.152 c -0.274,-0.273 -0.5,-3.48 -0.5,-7.125 v -6.625 h 53.25 v 14.25 H 82.555 c -14.367,0 -26.348,-0.222 -26.625,-0.5 z m -11.938,-6.695 -7.312,-5.609 v -6.41 c 0,-3.524 0.297,-6.297 0.66,-6.161 0.367,0.141 3.898,2.446 7.848,5.125 l 7.187,4.875 0.027,6.938 c 0.016,3.816 -0.226,6.918 -0.535,6.894 -0.308,-0.019 -3.851,-2.566 -7.875,-5.652 z m 67.848,-1.148 0.215,-6.993 7.363,-5.082 c 4.051,-2.793 7.512,-5.082 7.687,-5.082 0.18,0 0.317,2.953 0.309,6.563 l -0.012,6.562 -7.211,5.25 c -3.964,2.891 -7.515,5.368 -7.89,5.512 -0.383,0.149 -0.582,-2.773 -0.461,-6.73 z M 51.266,149.055 c -7.52,-4.762 -13.168,-9.117 -12.571,-9.7 0.336,-0.324 2.332,-1.269 4.434,-2.093 3.824,-1.496 3.824,-1.496 10.484,2.574 l 6.66,4.066 h 43.754 l 6.719,-4.129 6.715,-4.132 4.273,1.89 c 5.207,2.301 5.258,2.203 -4.589,8.692 l -7.86,5.179 H 82.129 c -27.156,0 -27.156,0 -30.863,-2.347 z m -27.024,-7.5 c -0.308,-0.5 1.215,-2.379 3.707,-4.563 4.422,-3.879 5.227,-6.004 2.774,-7.316 -1.219,-0.653 -2.207,-0.156 -6.039,3.035 -3.649,3.035 -4.793,3.637 -5.629,2.941 -0.86,-0.711 -0.227,-1.601 3.508,-4.933 5.843,-5.215 9.179,-5.371 11.746,-0.551 1.363,2.559 1.144,3.062 -3.368,7.793 -4.218,4.422 -5.695,5.215 -6.699,3.594 z m 110.367,-1.676 c -6.55,-6.18 -0.144,-14.977 7.504,-10.309 2.668,1.625 5.047,6.063 4.332,8.078 -1.89,5.34 -7.429,6.383 -11.836,2.231 z m 8.141,-0.902 c 3.25,-3.247 -3.73,-10.469 -7.137,-7.387 -2.031,1.836 -1.793,3.101 1.117,6.015 2.817,2.813 4.25,3.141 6.02,1.372 z m -86.367,-0.168 c -3.477,-2.067 -4.676,-3.207 -4.688,-4.45 -0.015,-1.582 0.223,-1.515 4.672,1.309 4.524,2.867 4.918,2.973 11.133,2.98 5.488,0.004 6.648,0.231 7.805,1.504 1.351,1.493 1.312,1.5 -6.446,1.469 -7.636,-0.031 -7.902,-0.09 -12.476,-2.812 z m 32.254,1.343 c 1.547,-1.214 3.039,-1.5 7.945,-1.5 5.754,0 6.262,-0.14 10.754,-2.988 3.801,-2.406 4.769,-2.758 4.977,-1.797 0.328,1.512 -0.043,1.86 -5.465,5.113 -4.348,2.61 -4.641,2.672 -12.285,2.672 -7.836,0 -7.836,0 -5.926,-1.5 z M 76.77,139.063 c -2.606,-2.606 -2.59,-7.692 0.035,-10.161 2.238,-2.101 2.699,-0.449 0.715,2.575 -1.575,2.406 -0.704,5.449 1.957,6.828 4.433,2.293 8.609,-1.785 6.839,-6.68 -1.539,-4.262 -0.253,-5.074 1.786,-1.129 3.687,7.125 -5.684,14.211 -11.332,8.567 z M 63.68,128.516 v -7.887 l 36.375,0.398 v 15 l -4.5,0.215 c -4.5,0.215 -4.5,0.215 -4.606,-2.715 -0.125,-3.371 -1.738,-6.203 -4.336,-7.593 -0.992,-0.532 -1.972,-1.598 -2.175,-2.371 -1.196,-4.583 -11.758,4.214 -11.758,9.792 0,3.047 0,3.047 -4.5,3.047 h -4.5 z m 15.5,7.386 c -1.141,-1.136 -0.555,-3.476 0.629,-2.496 0.683,0.567 2.039,0.75 3.453,0.469 1.918,-0.383 2.246,-0.258 1.871,0.719 -0.25,0.652 -0.453,1.324 -0.453,1.496 0,0.519 -4.961,0.351 -5.5,-0.188 z m -24.688,-4.043 c -5.285,-3.171 -5.73,-3.882 -3.914,-6.285 1.449,-1.918 1.402,-5.656 -0.098,-7.801 -1.98,-2.828 -0.496,-2.859 4.809,-0.101 l 5.016,2.605 0.215,7.313 c 0.246,8.437 0.554,8.219 -6.028,4.269 z m 48.348,-4.269 0.215,-7.313 5.25,-2.761 c 5.593,-2.946 6.41,-2.805 4.547,0.8 -1.493,2.883 -1.481,4.918 0.035,7.235 1.676,2.554 1.117,3.437 -4.188,6.597 -6.246,3.719 -6.105,3.832 -5.859,-4.558 z m -22.332,4.086 c -0.844,-2.199 -0.008,-7.649 1.172,-7.649 1.461,0 1.636,7.957 0.187,8.438 -0.515,0.172 -1.125,-0.184 -1.359,-0.789 z m 64.672,-3.223 c -5.364,-3.867 -6.512,-5.418 -4.512,-6.086 1.391,-0.465 12.23,7.992 11.773,9.188 -0.617,1.609 -0.89,1.492 -7.261,-3.102 z m -100.508,2.945 c -1.262,-1.265 -0.52,-10.859 0.82,-10.605 1.738,0.332 2.336,8.891 0.715,10.234 -0.574,0.477 -1.262,0.641 -1.535,0.371 z m 72.75,0 c -1.262,-1.265 -0.52,-10.859 0.82,-10.605 1.742,0.332 2.336,8.891 0.715,10.234 -0.57,0.477 -1.262,0.641 -1.535,0.371 z M 14.48,129.355 c -0.218,-0.574 0.641,-3.105 1.911,-5.625 2.66,-5.269 2.582,-5.347 -2.336,-2.32 -3.078,1.895 -3.739,2.07 -4.114,1.094 -0.246,-0.641 -0.32,-1.262 -0.168,-1.379 1.547,-1.195 12.133,-7.223 12.684,-7.223 1.277,0 0.781,2.18 -1.539,6.774 -1.242,2.465 -2.102,4.476 -1.906,4.476 0.195,0 2.066,-1.007 4.16,-2.242 3.187,-1.883 3.883,-2.058 4.25,-1.094 0.246,0.633 0.316,1.25 0.164,1.368 -0.953,0.738 -12.027,7.218 -12.332,7.218 -0.203,0 -0.551,-0.468 -0.774,-1.047 z m 135.973,-4.785 c -0.699,-0.777 -1.273,-1.804 -1.273,-2.289 0,-0.554 -1.391,-0.879 -3.778,-0.879 -3.543,0 -3.726,-0.089 -2.972,-1.5 0.617,-1.148 1.57,-1.5 4.109,-1.5 4.231,0 4.77,-0.925 1.543,-2.66 -2.039,-1.097 -2.414,-1.633 -1.863,-2.664 0.754,-1.406 13.394,4.731 13.441,6.527 0.106,4.223 -6.601,7.84 -9.207,4.965 z m 5.422,-2.722 c 0.93,-1.121 -1.426,-3.446 -3.488,-3.446 -0.989,0 -1.344,3.114 -0.457,4 0.855,0.86 3.027,0.551 3.945,-0.554 z m -41.383,2.879 c -1,-1.02 -0.594,-4.684 0.656,-5.934 2.95,-2.949 9.028,0.781 7.426,4.555 -0.511,1.215 -0.691,1.047 -1.176,-1.102 -1.226,-5.457 -5.539,-5.07 -6.093,0.547 -0.137,1.375 -0.504,2.246 -0.813,1.934 z m -73.211,-2.61 c -0.125,-3.285 0.973,-4.465 4.157,-4.465 3.179,0 5.382,2.903 4.148,5.465 -0.789,1.629 -0.805,1.621 -0.856,-0.347 -0.14,-5.563 -5.988,-5.45 -7.003,0.132 -0.266,1.453 -0.368,1.274 -0.446,-0.785 z m 91.262,-2.988 c -1.523,-0.805 -2.992,-1.828 -3.273,-2.281 -0.278,-0.45 0.527,-0.285 1.789,0.371 3.125,1.613 3.367,1.508 1.843,-0.817 -1.312,-2.004 -1.312,-2.004 1.297,-1.515 2.606,0.484 2.606,0.484 0.543,-1.215 -3.078,-2.539 -2.488,-3.156 0.75,-0.785 4.496,3.289 4.551,3.441 1.192,3.144 -3.071,-0.273 -3.586,1.153 -1,2.75 0.871,0.539 1.007,1.887 0.183,1.84 -0.308,-0.019 -1.804,-0.691 -3.324,-1.492 z M 57.867,115.57 c -6.633,-3.347 -6.648,-3.488 -0.574,-4.851 4.57,-1.024 5.125,-0.996 9.187,0.461 6.329,2.265 24.829,2.265 31.161,-0.004 4.132,-1.481 4.57,-1.5 9.187,-0.395 6.051,1.446 6.047,1.453 -0.785,4.832 -8.645,4.278 -39.668,4.25 -48.176,-0.043 z m -50.758,0.832 c -0.586,-1.523 -1.101,-1.156 6.067,-4.308 6.851,-3.012 7.426,-3.129 7.996,-1.641 0.277,0.727 -1.035,1.684 -4.231,3.09 -9.949,4.375 -9.32,4.191 -9.832,2.859 z m -2.14,-5.468 c -0.301,-1.157 0.679,-2.094 4.793,-4.579 2.843,-1.718 5.168,-3.273 5.168,-3.46 0,-0.184 -2.785,-0.262 -6.188,-0.172 -5.242,0.14 -6.222,-0.024 -6.429,-1.078 -0.434,-2.227 15.292,-1.821 15.875,0.414 0.238,0.91 0.363,1.703 0.273,1.761 -1.91,1.305 -11.645,7.707 -12.258,8.067 -0.484,0.285 -1.015,-0.129 -1.234,-0.953 z m 135.922,0.203 c 0.996,-2.063 -0.239,-3.051 -2.008,-1.61 -1.07,0.871 -1.168,0.825 -0.731,-0.339 0.727,-1.938 -1.66,-2.657 -2.957,-0.887 -0.558,0.765 -1.015,1.051 -1.015,0.64 0,-2.789 1.922,-3.484 5.113,-1.855 3.484,1.777 3.652,2.137 1.973,4.238 -1.129,1.406 -1.141,1.399 -0.375,-0.187 z m 14.05,-0.043 c -6.468,-0.215 -7.332,-0.403 -7.117,-1.531 0.145,-0.75 1.074,-1.379 2.25,-1.516 2.594,-0.301 3.805,-4.344 1.75,-5.844 -0.906,-0.668 -1.082,-1.293 -0.594,-2.164 0.614,-1.094 7.188,3.063 12.461,7.883 0.711,0.648 -0.066,3.824 -0.875,3.574 -0.281,-0.086 -3.824,-0.266 -7.875,-0.402 z m 5.489,-2.742 c 0,-1.032 -4.899,-3.27 -5.407,-2.469 -1.257,1.976 -0.566,2.769 2.407,2.769 1.652,0 3,-0.132 3,-0.3 z m -89,1.472 c -2.543,-0.578 -5.328,-1.426 -6.188,-1.886 -1.898,-1.016 -2.109,-2.657 -0.25,-1.938 8.887,3.422 25.238,3.422 34.125,0 0.887,-0.34 1.313,-0.145 1.313,0.602 0,3.082 -19.895,5.293 -29,3.222 z m -0.196,-3.668 c -1.824,-0.48 -3.445,-1.273 -3.601,-1.754 -0.203,-0.617 0.781,-0.539 3.316,0.258 6.289,1.977 18.938,1.477 25.403,-1.004 0.593,-0.226 1.078,-0.051 1.078,0.387 0,2.637 -18.555,4.133 -26.196,2.113 z m 72.223,-0.644 c 0.293,-0.953 -0.437,-1.582 -2.961,-2.543 -1.844,-0.707 -3.187,-1.446 -2.988,-1.641 0.199,-0.199 1.711,0.18 3.363,0.84 2.797,1.121 3.059,1.113 3.817,-0.094 0.671,-1.066 0.726,-0.965 0.312,0.578 -0.277,1.032 -0.824,2.383 -1.219,3 -0.593,0.942 -0.648,0.918 -0.324,-0.14 z M 70.539,103.02 c -4.73,-1.325 -5.523,-1.743 -4.976,-2.629 0.222,-0.36 1.832,-0.141 3.574,0.492 7,2.535 20.851,2.094 28.582,-0.918 1.035,-0.402 1.32,-0.266 1.07,0.508 -1.008,3.058 -20.23,4.789 -28.25,2.547 z m 6.059,-4.446 C 64.563,94.73 61.633,83.063 70.109,72.766 c 1.84,-2.235 3.485,-4.774 3.664,-5.649 0.176,-0.875 0.543,-2.937 0.821,-4.59 0.496,-3 0.496,-3 2.285,2.25 2.519,7.407 2.375,10.621 -0.695,15.106 -4.059,5.926 -4.063,10.133 -0.008,13.828 1.75,1.594 1.918,1.633 1.367,0.316 -1.902,-4.543 -1.348,-8.144 1.812,-11.734 5.247,-5.961 5.329,-8.277 0.602,-17.516 -2.926,-5.718 -3.258,-11.859 -0.82,-15.129 2.312,-3.101 3.566,-2.703 4.14,1.309 0.664,4.652 3.407,9.801 8.555,16.07 9.5,11.575 9.637,21.532 0.406,29.25 -1.949,1.633 -1.726,1.125 1.742,-3.968 4.301,-6.313 2.907,-14.911 -3.375,-20.801 -2.671,-2.508 -2.66,-2.43 0.45,3.781 6.816,13.602 -1.723,27.356 -14.457,23.285 z m 88.086,-1.449 c 0.625,-3.836 -1.047,-4.27 -3.7,-0.965 -4.75,5.926 -11.144,1.469 -8.347,-5.82 0.996,-2.602 2.574,-1.27 2.371,2 -0.262,4.125 2.058,4.902 4.133,1.387 3.422,-5.789 10.039,-1.653 7.586,4.742 -0.911,2.363 -2.477,1.328 -2.043,-1.344 z m -23.192,0.492 c -2.84,-0.429 -2.582,-1.426 0.653,-2.492 2.937,-0.969 2.3,-2.187 -1.153,-2.211 -0.996,-0.004 -1.609,-0.215 -1.359,-0.461 0.613,-0.617 8.047,0.449 8.047,1.152 0,0.309 -1.434,1.008 -3.188,1.555 l -3.187,0.992 3,0.946 c 3.054,0.957 1.715,1.207 -2.813,0.519 z M 1.031,94.957 c -0.672,-2.691 -0.125,-6.766 0.961,-7.121 0.633,-0.207 0.938,0.559 0.938,2.336 0,2.887 0.718,3.734 2.558,3.031 0.711,-0.273 1.192,-1.336 1.192,-2.629 0,-1.429 0.383,-2.172 1.125,-2.172 0.758,0 1.125,0.758 1.125,2.301 0,2.067 0.211,2.277 2.062,2.063 1.86,-0.215 2.055,-0.512 1.977,-3.051 -0.047,-1.547 0.207,-2.813 0.562,-2.813 0.356,0 0.903,-0.082 1.211,-0.187 0.309,-0.102 0.735,1.723 0.942,4.055 l 0.379,4.242 -5.629,0.504 C 7.336,95.793 4.059,96.195 3.148,96.41 1.859,96.715 1.395,96.395 1.031,94.957 Z m 44.297,-0.668 c -1.957,-1.539 -2.152,-1.559 -4.152,-0.375 -2.946,1.738 -3.16,1.59 -1.93,-1.359 1.059,-2.532 1.027,-2.649 -1.113,-4.453 -2.813,-2.364 -2.789,-2.418 0.801,-2.075 2.867,0.274 3.066,0.153 4.265,-2.605 l 1.258,-2.895 0.711,3.153 c 0.68,3.015 0.836,3.156 3.797,3.375 l 3.09,0.222 -2.5,1.5 c -2.297,1.383 -2.461,1.727 -2.051,4.313 0.519,3.293 0.5,3.305 -2.176,1.199 z m 95.789,-5.394 c 0.723,-0.567 1.313,-1.461 1.313,-1.993 0,-0.527 -0.59,-1.433 -1.313,-2.015 -1.597,-1.289 0.66,-0.813 5.063,1.07 2.625,1.121 2.625,1.121 0.375,2.055 -3.883,1.617 -7.016,2.125 -5.438,0.883 z m 4.637,-2.075 c -0.656,-1.062 -2.574,-0.769 -2.574,0.387 0,0.684 0.527,0.918 1.492,0.668 0.82,-0.215 1.305,-0.691 1.082,-1.055 z m 10.551,-0.031 c -4.539,-2.484 -4.719,-8.512 -0.321,-10.789 5.395,-2.789 12.696,0.25 12.696,5.277 0,4.797 -7.543,8.153 -12.375,5.512 z m 8.609,-3.617 c 2.602,-2.606 0.199,-5.27 -4.758,-5.27 -2.562,0 -4.976,1.543 -4.976,3.184 0,3.398 6.937,4.883 9.734,2.086 z M 3.773,84.113 C -0.262,83.82 -0.262,83.82 0.211,80.375 c 0.734,-5.371 4.57,-7.422 8.027,-4.293 1.184,1.07 1.571,1.039 4.371,-0.391 3.047,-1.554 3.071,-1.558 3.071,-0.066 0,0.992 -1.008,2.016 -3,3.027 -3.746,1.914 -3.805,2.844 -0.188,3.145 1.899,0.156 2.813,0.598 2.813,1.355 0,1.215 -3.766,1.532 -11.532,0.961 z M 8.18,80.965 c 0,-1.942 -1.094,-3.063 -3,-3.063 -2.051,0 -3.45,1.664 -2.582,3.071 0.55,0.894 5.582,0.886 5.582,-0.008 z m 139.5,1.101 c 0,-0.773 -1.129,-1.164 -3.938,-1.359 l -3.937,-0.277 3.883,-0.137 c 2.992,-0.105 3.96,-0.438 4.226,-1.453 0.188,-0.719 0.383,-0.047 0.43,1.5 0.047,1.547 -0.082,2.812 -0.289,2.812 -0.207,0 -0.375,-0.488 -0.375,-1.086 z m -6.75,-6.312 c 1.535,-0.883 7.168,-1.703 6.312,-0.918 -0.379,0.344 -2.207,0.836 -4.062,1.098 -2.024,0.281 -2.926,0.211 -2.25,-0.18 z M 14.008,72.98 C 13.777,72.75 13.758,71.273 13.969,69.703 14.574,65.191 11.887,64.734 9.41,68.926 6.594,73.699 0.359,70.387 1.918,64.949 2.32,63.543 3.191,62.426 4.004,62.27 c 1.098,-0.211 1.273,0.027 0.824,1.121 -2.133,5.199 0.047,6.464 3.68,2.136 2.777,-3.304 5.461,-3.289 7.644,0.047 1.774,2.707 -0.164,9.391 -2.144,7.406 z M 152.18,72.047 c 0,-0.75 1.011,-2.109 2.25,-3.024 2.73,-2.019 3.086,-4.21 0.562,-3.484 -0.926,0.266 -2.277,0.649 -3,0.852 -0.941,0.261 -1.312,-0.071 -1.312,-1.172 0,-0.977 0.613,-1.68 1.687,-1.926 13.516,-3.121 13.008,-3.152 13.754,0.82 0.914,4.883 -2.644,8.321 -6.484,6.266 -1.239,-0.66 -1.93,-0.457 -3.793,1.109 -2.692,2.266 -3.664,2.41 -3.664,0.559 z m 11.242,-5.008 c 1.527,-1.84 0.371,-3.5 -2.039,-2.926 -3.047,0.731 -3.285,0.985 -2.43,2.586 0.926,1.731 3.176,1.899 4.469,0.34 z m -24.465,3.613 c -0.894,-3.566 4.148,-6.218 6.793,-3.57 0.648,0.648 1.156,1.746 1.129,2.438 -0.039,0.964 -0.238,0.875 -0.844,-0.383 -1.437,-2.977 -6.605,-2.297 -6.605,0.867 0,1.668 1.265,2.027 2.566,0.73 1,-1.004 1.184,-1.015 1.184,-0.089 0,1.023 -1.492,2.007 -3.047,2.007 -0.371,0 -0.899,-0.898 -1.176,-2 z M 24.422,69.031 c -1.359,-1.5 -1.633,-3.547 -0.563,-4.207 0.375,-0.234 0.516,0.203 0.317,0.969 -0.942,3.598 4.574,5.012 6.285,1.609 0.523,-1.031 0.953,-1.429 0.957,-0.886 0.043,3.636 -4.504,5.269 -6.996,2.515 z m 112.437,-5.804 c -1.543,-1.543 -1.488,-2.266 0.321,-4.075 2.57,-2.566 6.75,-1.574 6.75,1.61 0,2.894 -4.926,4.609 -7.071,2.465 z m 4.864,-0.957 c 3.371,-2.731 0,-5.239 -3.629,-2.696 -1.348,0.942 -1.52,1.449 -0.891,2.625 0.977,1.824 2.328,1.844 4.52,0.071 z M 11.086,60.336 c -5.879,-1.879 -7.133,-2.535 -6.75,-3.527 0.422,-1.094 1.203,-1.004 7.477,0.879 7.933,2.382 7.585,2.195 6.96,3.773 -0.41,1.035 -1.371,0.894 -7.687,-1.125 z m 16.336,1.621 c -1.676,-1.227 -1.426,-4.176 0.453,-5.352 2.133,-1.335 5.43,0.915 5.43,3.704 0,2.57 -3.344,3.507 -5.883,1.648 z m 5.359,-1.441 c 0.301,-1.578 -2.957,-3.813 -4.621,-3.172 -1.621,0.621 -1.574,3.031 0.082,4.015 1.852,1.098 4.254,0.653 4.539,-0.843 z M 13.055,54.527 C 5.734,50.809 6.301,51.383 7.391,48.754 c 2.214,-5.352 6.316,-6.965 11.281,-4.438 4.449,2.266 5.301,4.95 3.129,9.864 -1.836,4.152 -1.305,4.133 -8.746,0.347 z m 6.984,-3.425 c 0.406,-4.207 -5.824,-6.985 -8.859,-3.95 -2.129,2.133 -1.961,2.457 2.437,4.684 4.93,2.5 6.121,2.363 6.422,-0.734 z m 113.527,5.64 c -2.199,-2.199 0.243,-6.59 3.664,-6.59 1.254,0 3.7,2.243 3.7,3.391 0,0.355 -0.688,-0.094 -1.528,-0.996 -2.593,-2.781 -7.273,-0.262 -5.359,2.883 1.133,1.851 0.848,2.633 -0.477,1.312 z m 13.059,-2.41 c -2.52,-4.301 -2.91,-3.68 4.684,-7.492 l 6.625,-3.328 1.625,3.34 c 1.89,3.898 2.004,4.8 0.586,4.8 -0.567,0 -1.454,-1.011 -1.965,-2.25 -1.051,-2.535 -1.055,-2.539 -3.067,-1.461 -1.347,0.719 -1.375,0.918 -0.324,2.414 1.43,2.047 1.43,2.528 -0.008,3.079 -0.75,0.289 -1.441,-0.207 -1.996,-1.418 -0.898,-1.981 -1.805,-2.266 -3.578,-1.145 -0.957,0.606 -0.937,1.027 0.141,3.289 1.156,2.426 1.09,3.492 -0.223,3.492 -0.305,0 -1.43,-1.492 -2.5,-3.32 z m -114.473,-0.273 -3.347,-2.032 3.75,-0.379 c 3.75,-0.378 3.75,-0.378 1.242,-1.742 -1.379,-0.75 -2.359,-1.508 -2.184,-1.687 0.45,-0.446 6.555,2.926 6.563,3.621 0,0.312 -1.43,0.574 -3.184,0.59 -3.117,0.023 -2.875,1.261 0.481,2.468 0.457,0.165 0.652,0.5 0.429,0.747 -0.222,0.242 -1.91,-0.473 -3.75,-1.586 z m 5.129,-7.121 c -2.629,-2.282 -2.758,-5.036 -0.238,-5.036 0.312,0 0.141,0.524 -0.391,1.161 -1.429,1.726 0.235,3.191 2.059,1.808 1.144,-0.867 1.207,-0.863 0.41,0.027 -0.754,0.848 -0.621,1.375 0.695,2.778 2.395,2.547 0.672,2.047 -2.535,-0.738 z m 92.457,-0.266 c 1.817,-1.981 1.817,-1.981 -0.34,-1.461 -1.765,0.426 -2.074,0.309 -1.687,-0.645 1.582,-3.918 1.582,-3.878 0.035,-2.589 -2.965,2.468 -3.574,2.183 -0.719,-0.34 3.43,-3.028 4.657,-2.883 2.985,0.351 -1.164,2.25 -1.164,2.25 1.691,1.739 l 2.852,-0.508 -2.586,2.719 c -2.934,3.085 -5.024,3.777 -2.231,0.734 z M 20.66,39.922 c -6.062,-8.848 -5.258,-9.844 4.879,-6.051 7.043,2.637 9.34,4.809 4.766,4.512 -2.84,-0.188 -5.563,2.914 -4.102,4.672 0.906,1.093 0.52,3.375 -0.562,3.32 -0.321,-0.016 -2.563,-2.922 -4.981,-6.453 z m 4.539,-1.676 c 0.778,-1.242 0.535,-1.539 -2.07,-2.562 -3.422,-1.344 -3.508,-1.227 -1.309,1.75 1.93,2.609 2.215,2.675 3.379,0.812 z m 114.508,4.731 c -3.402,-3.606 -3.32,-3.817 3.313,-8.75 l 5.785,-4.301 2.031,2.359 c 7.062,8.211 -3.707,18.559 -11.129,10.692 z m 8.051,-1.286 c 2.754,-1.851 3.496,-4.062 2.191,-6.503 -0.801,-1.497 -0.965,-1.45 -5.347,1.644 -4.524,3.188 -4.524,3.188 -2.555,4.879 2.43,2.09 2.57,2.09 5.711,-0.02 z m -106.25,0.106 c -1.625,-1.692 -2.278,-2.731 -1.453,-2.305 1.871,0.965 5.258,4.531 4.765,5.02 -0.199,0.199 -1.691,-1.02 -3.312,-2.715 z m 3.137,-2.598 c -2.43,-2.922 -2.161,-3.965 0.691,-2.668 3.066,1.399 3.559,1.028 1.844,-1.379 -2.117,-2.972 -1.293,-2.867 1.488,0.188 3.156,3.473 2.984,4.637 -0.477,3.191 -3.39,-1.418 -3.714,-1.156 -1.718,1.383 2.32,2.949 0.687,2.309 -1.828,-0.715 z m 75.3,1.598 c -1.636,-1.973 3.446,-7.637 5.325,-5.938 1.812,1.641 1.796,2.055 -0.043,1.071 -1.817,-0.973 -2.836,0.293 -1.52,1.883 0.586,0.703 0.621,1.089 0.109,1.089 -0.437,0 -1.031,-0.379 -1.32,-0.843 -0.355,-0.575 -0.75,-0.442 -1.23,0.414 -0.469,0.836 -0.403,1.625 0.195,2.347 0.519,0.621 0.582,1.082 0.152,1.082 -0.41,0 -1.164,-0.496 -1.668,-1.105 z m -3.91,-6.563 -0.23,-3.207 -1.684,2.625 c -2.223,3.465 -2.18,1.762 0.059,-2.172 2.023,-3.566 2.75,-3.304 2.754,0.985 l 0.004,3.062 1.484,-2.437 c 2.07,-3.395 2.601,-3.051 0.785,0.512 -2.129,4.171 -2.902,4.328 -3.172,0.632 z M 52.02,34.813 c -2.497,-2.5 -1.551,-6.411 1.55,-6.411 0.356,0 0.043,0.442 -0.691,0.981 -2.602,1.902 -0.172,6.687 2.812,5.543 0.711,-0.274 1.032,-0.938 0.774,-1.613 -0.242,-0.633 -0.828,-0.934 -1.301,-0.668 -0.523,0.293 -0.492,0.085 0.074,-0.528 0.778,-0.836 1.125,-0.762 2.039,0.453 0.996,1.313 0.95,1.59 -0.453,2.77 -2.051,1.726 -2.613,1.664 -4.804,-0.527 z M 29.27,30.578 c -5.219,-6.004 -5.172,-5.883 -2.903,-7.949 4.477,-4.078 7.309,-4.156 11.153,-0.313 3.554,3.555 3.828,6.379 0.953,9.797 -3.68,4.379 -4.129,4.301 -9.203,-1.535 z m 6.98,0.399 C 38,29.227 37.684,26.613 35.453,24.383 33.25,22.18 30.598,21.82 29.18,23.527 c -1.039,1.254 -0.739,1.817 3.297,6.188 2.628,2.855 2.293,2.742 3.773,1.262 z m 93.102,0.906 -2.954,-2.5 4.715,-5.77 c 3.836,-4.699 4.91,-5.605 5.774,-4.89 1.183,0.98 1.347,0.679 -3.821,6.945 -3,3.637 -3,3.637 -1.039,5.25 1.075,0.887 1.805,2.031 1.618,2.547 -0.497,1.375 -1.028,1.18 -4.293,-1.582 z m -19.02,-1.586 c 0.898,-1.848 1.75,-3.242 1.895,-3.094 0.472,0.469 -2.188,6.449 -2.868,6.449 -0.363,0 0.075,-1.507 0.973,-3.355 z M 59.309,29.715 c -1.559,-3.477 -1.426,-3.914 1.371,-4.606 1.863,-0.461 1.863,-0.457 0.168,0.414 -2.141,1.102 -1.723,2.567 0.664,2.329 1.707,-0.168 1.726,-0.125 0.386,0.902 -1.882,1.445 -1.093,3.402 1.172,2.902 1.387,-0.304 1.508,-0.218 0.61,0.422 -1.973,1.41 -2.907,0.902 -4.371,-2.363 z m 46.562,1.5 c 1.652,-4.399 1.598,-4.781 -0.418,-2.918 -1.914,1.769 -1.914,1.769 -2.215,-0.75 l -0.297,-2.52 -1.046,2.438 c -0.575,1.344 -1.293,2.437 -1.598,2.437 -0.852,0 1.992,-6.242 3,-6.578 0.558,-0.187 0.883,0.606 0.883,2.149 0,2.441 0,2.441 1.871,0.683 1.031,-0.965 2.043,-1.59 2.25,-1.383 0.433,0.438 -1.821,7.379 -2.395,7.379 -0.215,0 -0.226,-0.422 -0.035,-0.937 z M 65.98,27.16 c -0.707,-2.801 -0.687,-3.617 0.098,-4.113 2.012,-1.277 3.973,0.105 3.379,2.383 -0.309,1.175 0.051,2.09 1.203,3.05 0.906,0.758 1.266,1.387 0.801,1.399 -0.465,0.016 -1.266,-0.481 -1.781,-1.102 -1.332,-1.601 -2.492,-1.386 -2.032,0.375 0.215,0.828 0.125,1.5 -0.199,1.5 -0.324,0 -0.988,-1.57 -1.469,-3.492 z m 2.7,-1.43 c 0.593,-1.546 -0.965,-3.164 -2.024,-2.101 -0.859,0.859 -0.211,3.273 0.879,3.273 0.379,0 0.895,-0.527 1.145,-1.172 z m 5.218,2.114 c -1.324,-4.567 -0.906,-6.563 1.407,-6.684 1.511,-0.078 1.695,0 0.562,0.238 -1.066,0.227 -1.687,0.911 -1.687,1.86 0,1.191 0.347,1.402 1.687,1.035 1.61,-0.438 1.617,-0.418 0.188,0.437 -0.825,0.493 -1.594,0.965 -1.703,1.051 -1.036,0.793 1,2.336 2.679,2.035 2.543,-0.461 1.969,0.211 -0.738,0.86 -1.535,0.367 -2.102,0.168 -2.395,-0.832 z m 18.747,0.168 c -1.528,-1.528 -1.543,-3.305 -0.047,-5.442 2.691,-3.843 7.105,0.051 4.769,4.211 -1.351,2.41 -3.09,2.864 -4.722,1.231 z m 2.996,-0.18 c 2.402,-1.586 1.699,-6.18 -0.946,-6.18 -1.539,0 -2.691,3.52 -1.738,5.301 0.836,1.563 1.375,1.738 2.684,0.879 z M 83.367,24.277 c -0.027,-2.925 0.145,-3.843 0.485,-2.625 0.324,1.164 1.066,1.875 1.953,1.875 0.89,0 1.629,-0.711 1.953,-1.875 0.34,-1.218 0.508,-0.3 0.484,2.625 -0.019,2.477 -0.176,3.575 -0.347,2.438 -0.243,-1.578 -0.727,-2.063 -2.09,-2.063 -1.36,0 -1.848,0.485 -2.086,2.063 -0.172,1.137 -0.332,0.039 -0.352,-2.438 z m 41.227,3.243 c -0.5,-0.504 -0.914,-1.684 -0.914,-2.622 0,-2.472 -3.785,-4.39 -5.426,-2.746 -0.781,0.782 -1.555,0.946 -2.348,0.504 -0.961,-0.539 -0.066,-1.687 4.699,-6.047 5.231,-4.781 6.04,-5.273 7.239,-4.394 1.297,0.949 1.297,1.219 -0.008,7.273 -1.828,8.5 -2.102,9.172 -3.242,8.032 z m 1.078,-9.622 c 0.726,-2.714 0.687,-2.918 -0.406,-2.097 -3.543,2.668 -3.84,3.07 -2.993,4.094 1.461,1.757 2.571,1.105 3.399,-1.997 z M 45.285,17.863 c -4.051,-8.066 -3.437,-9.035 3.137,-4.922 5.199,3.254 5.383,3.145 2.914,-1.726 -1.773,-3.5 -1.832,-3.887 -0.66,-4.336 0.711,-0.274 1.414,-0.125 1.562,0.332 0.153,0.453 1.582,3.523 3.18,6.824 3.391,7.008 2.723,8.278 -2.48,4.727 -6.668,-4.547 -6.868,-4.524 -4.317,0.527 1.852,3.668 2.063,4.551 1.156,4.899 -0.8,0.304 -2.039,-1.438 -4.492,-6.325 z m 65.594,-2.211 c -1.125,-6.289 -1.484,-6.433 -3.289,-1.312 -1.676,4.758 -1.449,4.445 -2.832,3.914 -1.012,-0.391 2.691,-12.867 4.293,-14.469 0.89,-0.89 2.519,1.762 2.984,4.867 0.961,6.403 1.461,6.868 2.981,2.782 1.578,-4.235 2.238,-5.133 3.3,-4.477 0.481,0.301 -0.117,2.961 -1.625,7.207 -3.07,8.66 -4.468,9.02 -5.812,1.488 z M 59.586,11.777 c 0.594,-8.675 0.652,-8.875 2.523,-8.875 1.129,0 9.071,11.45 9.071,13.078 0,0.942 -2.969,0.348 -3.563,-0.71 -0.926,-1.665 -5.437,-0.665 -5.437,1.203 0,0.757 -0.703,1.754 -1.563,2.215 -1.554,0.832 -1.562,0.785 -1.031,-6.911 z m 5.098,0.446 c 0.964,-0.371 0.91,-0.805 -0.387,-3 C 62.371,5.961 62.18,6 62.18,9.652 c 0,2.996 0.379,3.387 2.504,2.571 z M 93.68,15.434 C 87.508,12.313 90.145,1.105 97.055,1.105 c 5.281,0 7.781,5.235 5.312,11.137 -1.644,3.942 -4.867,5.125 -8.687,3.192 z m 4.793,-2.43 c 1.504,-1.504 2.375,-6.27 1.418,-7.785 -1.629,-2.582 -4.996,-1.473 -6.098,2.011 -1.582,4.993 1.574,8.879 4.68,5.774 z M 74.848,14.531 C 70.965,12.422 70.074,5.18 73.297,1.953 c 2.16,-2.16 7.633,-2.699 7.633,-0.75 0,1.172 -0.387,1.418 -1.801,1.149 -3.91,-0.747 -6.391,4.914 -3.781,8.636 0.871,1.242 1.918,1.664 4.125,1.664 3.3,0 4.179,1.75 1.269,2.528 -2.492,0.668 -3.719,0.535 -5.894,-0.649 z M 84.84,7.602 c 0.183,-6.262 0.402,-7.34 1.527,-7.555 1.18,-0.227 1.313,0.512 1.313,7.301 0,7.101 -0.09,7.554 -1.528,7.554 -1.445,0 -1.515,-0.382 -1.312,-7.3 z"
       style="fill:#000000;fill-opacity:1;fill-rule:nonzero;stroke:none"
       transform="scale(1.3333333)"
       inkscape:export-filename="LogoUNR.png"
       inkscape:export-xdpi="900"
       inkscape:export-ydpi="900" /></g></svg>
